<svg width="160" height="160" viewBox="0 0 160 160" fill="none" xmlns="http://www.w3.org/2000/svg">
  <defs>
    <linearGradient id="skyIcon" x1="0" y1="0" x2="1" y2="1">
      <stop offset="0" stop-color="#38bdf8" />
      <stop offset="0.55" stop-color="#0ea5e9" />
      <stop offset="1" stop-color="#0284c7" />
    </linearGradient>
    <linearGradient id="slateIcon" x1="0" y1="0" x2="1" y2="1">
      <stop offset="0" stop-color="#0f172a" />
      <stop offset="1" stop-color="#1e293b" />
    </linearGradient>
  </defs>
  <rect x="14" y="16" width="136" height="136" rx="26" fill="url(#slateIcon)" opacity="0.85" />
  <rect x="6" y="6" width="136" height="136" rx="26" fill="#e2e8f0" />
  <rect x="0" y="0" width="136" height="136" rx="26" fill="url(#skyIcon)" />
  <rect x="20" y="22" width="48" height="12" rx="6" fill="#ffffff" fill-opacity="0.85" />
  <rect x="74" y="22" width="42" height="12" rx="6" fill="#ffffff" fill-opacity="0.6" />
  <rect x="24" y="44" width="88" height="72" rx="16" fill="#0f172a" fill-opacity="0.2" />
  <g opacity="0.9">
    <rect x="32" y="52" width="28" height="24" rx="8" fill="#ffffff" />
    <rect x="68" y="52" width="28" height="24" rx="8" fill="#ffffff" fill-opacity="0.8" />
    <rect x="32" y="82" width="28" height="24" rx="8" fill="#ffffff" fill-opacity="0.8" />
    <rect x="68" y="82" width="28" height="24" rx="8" fill="#ffffff" />
  </g>
</svg>
